<?xml version="1.0" encoding="UTF-8"?>
<!DOCTYPE svg PUBLIC "-//W3C//DTD SVG 1.1//EN" "http://www.w3.org/Graphics/SVG/1.1/DTD/svg11.dtd">
<!-- Creator: CorelDRAW -->
<svg xmlns="http://www.w3.org/2000/svg" xml:space="preserve" width="1000px" height="1000px" version="1.1" shape-rendering="geometricPrecision" text-rendering="geometricPrecision" image-rendering="optimizeQuality" fill-rule="evenodd" clip-rule="evenodd"
viewBox="0 0 1000 1000"
 xmlns:xlink="http://www.w3.org/1999/xlink"
 xmlns:xodm="http://www.corel.com/coreldraw/odm/2003">
 <g id="Capa_x0020_1">
  <metadata id="CorelCorpID_0Corel-Layer"/>
  <rect fill="#E94560" x="625" y="55" width="237" height="237" rx="25" ry="25"/>
  <path fill="#111827" d="M863 609l0 212c0,14 -11,25 -25,25l-187 0c-14,0 -25,-11 -25,-25l0 -212 -237 0 -212 0c-14,0 -25,-11 -25,-25l0 -212 0 -212c0,-14 11,-25 25,-25l187 0c14,0 25,11 25,25l0 212 237 0 212 0c14,0 25,11 25,25l0 212z"/>
  <rect fill="#E94560" x="150" y="688" width="237" height="237" rx="25" ry="25"/>
 </g>
</svg>
